<svg xmlns="http://www.w3.org/2000/svg" width="129.9" height="36"><path d="M18 0C8 0 0 8 0 18s8 18 18 18 18-8 18-18S28 0 18 0zm0 2.9c1.6 0 3.1.2 4.4.6L18 14.3 13.6 3.5c1.3-.4 2.8-.6 4.4-.6zm-7.1 1.7l1.8 4.3H5.8c1.3-1.7 3.1-3.3 5.1-4.3zm-6.8 7.2h9.7l2 4.9h-13c.3-1.8.7-3.5 1.3-4.9zm0 12.4c-.7-1.5-1.2-3.2-1.3-4.9h13l-2 4.9H4.1zm6.8 7.2c-2-1.1-3.7-2.5-5.1-4.3h6.9l-1.8 4.3zm7.1 1.7c-1.6 0-3.1-.2-4.4-.6l11.5-28c4.8 2.5 8 7.5 8 13.4 0 8.5-6.7 15.2-15.1 15.2z" fill="#fd6a4f"/><path d="M59.4 8.9c1.3.5 2.2 1.4 2.9 2.4.6 1.1 1 2.2 1 3.7 0 1.4-.3 2.6-1 3.7-.6 1.1-1.6 1.8-2.9 2.4s-2.8.9-4.4.9h-4.3v5.6H47V8h8c1.6 0 3.1.3 4.4.9zm-1 8.9c.8-.6 1.3-1.6 1.3-2.9s-.4-2.2-1.3-2.9c-.8-.6-2-1-3.6-1h-4.2v7.7h4.2c1.6.1 2.8-.3 3.6-.9zm17.3-5.3v3.3c-.3-.1-.5-.1-.8-.1-1.4 0-2.4.4-3.2 1.2-.7.7-1.2 1.9-1.2 3.4v7.2H67V12.6h3.3v2.1c1.1-1.5 2.9-2.2 5.4-2.2zm6 14.2c-1.2-.6-2.1-1.6-2.9-2.8-.6-1.2-1.1-2.4-1.1-3.9s.3-2.8 1.1-3.9c.6-1.2 1.6-2 2.9-2.6 1.2-.6 2.5-1 4-1s2.9.3 4.1 1c1.2.6 2.1 1.6 2.9 2.6.6 1.2 1.1 2.4 1.1 3.9s-.3 2.8-1.1 3.9c-.6 1.2-1.6 2-2.9 2.8-1.2.6-2.5 1-4.1 1-1.4-.1-2.7-.4-4-1zm7.2-3.3c.8-.8 1.3-2 1.3-3.4s-.4-2.5-1.3-3.4c-.8-.8-1.9-1.3-3.2-1.3s-2.3.4-3.2 1.3-1.3 2-1.3 3.4.4 2.5 1.3 3.4c.8.8 1.9 1.3 3.2 1.3 1.4 0 2.5-.5 3.2-1.3zm12.6-11.5v.8h4.1v2.8h-4v12h-3.5V15.6h-2.4v-2.9h2.4v-1c0-1.6.4-2.9 1.4-3.8s2.2-1.4 3.9-1.4c1.4 0 2.3.3 3.2.8l-1 2.6c-.6-.4-1.3-.6-1.9-.6-1.4.1-2.2 1-2.2 2.6zm8.8-2.3c-.4-.4-.6-.8-.6-1.5s.2-1.1.6-1.5 1-.6 1.6-.6 1.2.2 1.6.5c.4.4.6.8.6 1.4s-.2 1.2-.6 1.6-1 .6-1.6.6-1.1-.1-1.6-.5zm-.1 3h3.5v14.8h-3.5V12.6zm19.7 14.1c-.4.3-1 .6-1.5.7-.6.2-1.2.2-1.8.2-1.6 0-2.9-.4-3.8-1.3-.8-.8-1.4-2.1-1.4-3.7v-7.1H119v-2.9h2.4V9.3h3.5v3.4h3.9v2.8h-3.9v7.1c0 .7.2 1.3.5 1.7s.8.5 1.5.5 1.4-.2 1.9-.6l1.1 2.5z" fill="#3f3453"/></svg>