<svg xmlns="http://www.w3.org/2000/svg" width="85" height="22" fill-rule="evenodd"><path d="M10.97 21.33C4.4 21.33 0 16.67 0 11.02S4.4.65 10.96.67h61.96c6.56-.01 10.96 4.7 10.96 10.35s-4.4 10.3-10.97 10.3H10.97z" fill="#ec1c2e"/><path d="M11 3.2c-5.2.01-8.4 3.5-8.4 7.8s3.18 7.8 8.4 7.8h61.9c5.23.02 8.4-3.5 8.4-7.8s-3.2-7.78-8.4-7.8H11z" fill="#fff"/><g fill="#ec1c2e"><path d="M8.32 6.12h3.03l4.2 6.78-.01-6.78h3v9.73h-3l-4.22-6.8v6.8h-3V6.12zm26.58 1h2.93v1.3h1.58v.96h-1.58v6.46H34.9V9.4h-1.6v-.96h1.6v-1.3zM20.22 9.38h2.93v6.47h-2.93V9.38zm0-3.26h2.93v2h-2.93v-2zm52.44 6.44v1.37c0 1.03-.6 1.46-1.2 1.46s-1.2-.43-1.2-1.46V11.2c0-1.03.6-1.45 1.2-1.45s1.2.42 1.2 1.45l.01 1.37zM71.5 8.94c-2.36 0-4.27 1.63-4.27 3.63s1.9 3.63 4.27 3.63 4.28-1.63 4.28-3.63c-.01-2-1.92-3.63-4.28-3.63zm-8.13-2.82h2.9v9.73h-2.9v-.37c-1.12.7-2.38.7-3.37.24-.26-.12-2-.96-2-3.2 0-1.7 1.6-3.57 3.72-3.4.7.06 1.2.3 1.66.58l-.01-3.58zm.02 6.46v-1.16c0-1-.7-1.25-1.15-1.25-.47 0-1.15.25-1.15 1.25v2.3c0 1 .68 1.26 1.15 1.26.46 0 1.15-.26 1.15-1.26v-1.14zM30 9.08c1.1-.03 3.3.7 3.3 3.25v3.52h-2.9V11.6c0-.56-.54-1.2-1.34-1.2s-1.4.63-1.4 1.2v4.25h-2.9V9.38h2.9v.68c.56-.54 1.36-.95 2.33-.98zm23.77 0c1.1-.03 3.3.7 3.3 3.25v3.52h-2.9V11.6c0-.56-.54-1.2-1.34-1.2s-1.4.63-1.4 1.2v4.25h-2.9V9.38h2.9v.68a3.54 3.54 0 012.34-.98zm-11.63 2.55c-.01-.57.01-.94.2-1.27a1.19 1.19 0 011.03-.59 1.19 1.19 0 011.03.59c.2.33.2.7.2 1.27h-2.44zm2.43 1.95v.4c0 1.18-.78 1.45-1.2 1.45s-1.23-.26-1.23-1.45v-1.34h5.5c0-2-1.94-3.67-4.32-3.67S39 10.6 39 12.6s1.93 3.63 4.3 3.63c1.97 0 3.64-1.13 4.15-2.66l-2.9.02zm31.4-5.15h-.34v-2.2h.84c.52 0 .78.2.78.63 0 .4-.25.57-.57.6l.63.98h-.37l-.6-.96h-.38v.95zm.4-1.24c.28 0 .54-.02.54-.36 0-.27-.25-.33-.48-.33h-.46v.7h.4z"/><path d="M74.42 7.32c0-1.1.9-1.92 1.95-1.92 1.05 0 1.94.8 1.94 1.92a1.92 1.92 0 01-1.94 1.93c-1.06 0-1.95-.82-1.95-1.93zm1.95 1.6c.87 0 1.55-.68 1.55-1.6 0-.9-.68-1.6-1.55-1.6-.88 0-1.56.7-1.56 1.6 0 .93.68 1.6 1.56 1.6z"/></g></svg>