<svg xmlns="http://www.w3.org/2000/svg" width="190.1" height="25.8"><path d="M190.1 12.5c-1.8 1.4-3.7 2.7-5.6 3.9l-1.6-2.7c1.8-1.1 3.6-2.3 5.3-3.7l1.9 2.5zm-12.2 7.3c-2.2 1-4.6 1.9-7 2.6l-.9-3c2.3-.7 4.5-1.5 6.6-2.5l1.3 2.9zm-14.1 4.4c-2.4.5-4.8.8-7.3 1.1l-.3-3.1 7-1.1.6 3.1zm-14.7 1.6h-2.4c-1.7 0-3.3 0-5-.1l.2-3.2 4.9.1h2.3v3.2zM134.7 22l-.4 3.1L127 24l.5-3.1 7.2 1.1zm-14.1-2.5l-.7 3.1-7.1-1.7.8-3.1 7 1.7zm-14-3.6l-.9 3-7-2.1.9-3 7 2.1zm-13.8-4.3l-.9 3-6.9-2.2.9-3 6.9 2.2zM78.9 7.4l-.9 3-6.9-2 .8-3 7 2zM64.8 3.6l-.7 3.1-2.4-.5-4.6-.9.6-3.1 4.7 1c.7 0 1.6.2 2.4.4zM50.4.9L50 4l-7.1-.7.1-3.1 7.4.7zM35.7 3.2l-7.1.3-.3-3.1c2.4-.3 4.9-.4 7.4-.4v3.2zM21.5 4.4c-2.4.4-4.7 1-6.9 1.6l-.9-3c2.3-.7 4.8-1.3 7.3-1.7l.5 3.1zM7.9 8.3c-2.2.9-4.3 2-6.3 3.1L0 8.6c2.1-1.2 4.4-2.3 6.7-3.3l1.2 3z" fill="#463a5c" opacity=".25"/></svg>