<svg xmlns="http://www.w3.org/2000/svg" height="512" viewBox="0 0 511 511" width="512"><linearGradient id="A" gradientUnits="userSpaceOnUse" x1="255.5" x2="255.5" y1="274.75" y2="510.75"><stop offset="0" stop-color="#96d1f3"/><stop offset="1" stop-color="#ccfff4"/></linearGradient><linearGradient id="B" gradientUnits="userSpaceOnUse" x1="255.5" x2="255.5" y1="7.75" y2="237.75"><stop offset="0" stop-color="#a8abff"/><stop offset="1" stop-color="#fac8ff"/></linearGradient><linearGradient id="C" gradientUnits="userSpaceOnUse" x1="255.5" x2="255.5" y1=".25" y2="510.75"><stop offset="0" stop-color="#174fa3"/><stop offset="1" stop-color="#b044af"/></linearGradient><path d="M503.5 461.75v49H7.5v-49c0-39.678 26.26-73.217 62.35-84.198 6.392 6.885 15.516 11.198 25.65 11.198s19.26-4.313 25.65-11.198c24.182 7.358 43.936 24.854 54.35 47.53 10.413-22.676 30.167-40.17 54.35-47.53 6.392 6.885 15.516 11.198 25.65 11.198s19.26-4.313 25.65-11.198c24.182 7.358 43.936 24.854 54.35 47.53 10.413-22.676 30.167-40.17 54.35-47.53 6.392 6.885 15.516 11.198 25.65 11.198s19.26-4.313 25.65-11.198c36.088 10.98 62.35 44.52 62.35 84.198zm-41-187h-62c-11.046 0-20 8.954-20 20v20h70zm-332 40v-20c0-11.046-8.954-20-20-20h-62l12 40zm160 0l10-40h-90l10 40z" fill="url(#A)"/><path d="M40.5 7.75v200h42l16 30 67-30h50l40 30 40-30h50l67 30 16-30h42v-200z" fill="url(#B)"/><path d="M280.5 140.735v42.015h-50v-42.015c-17.804-9.105-30-27.615-30-48.985 0-30.376 24.624-55 55-55s55 24.624 55 55c0 21.37-12.196 39.88-30 48.985zm135 248.015c19.33 0 35-15.67 35-35v-39h-70v39c0 19.33 15.67 35 35 35zm-320 0c-19.33 0-35-15.67-35-35v-39h70v39c0 19.33-15.67 35-35 35zm160 0c-19.33 0-35-15.67-35-35v-39h70v39c0 19.33-15.67 35-35 35z" fill="#fff"/><path d="M452.914 373.892c8.13-15.04 3.957-26.172 5.086-58.042l14.58-48.6H400.5c-15.164 0-27.5 12.337-27.5 27.5v12.5c1.223 40.326-3.177 51.327 5.073 66.616-17.425 7.42-32.247 19.888-42.58 35.73a96.117 96.117 0 00-42.58-35.703c8.13-15.042 3.954-26.14 5.086-58.22l12.106-48.424H200.894L213 315.674c1.144 32.4-3 43.24 5.086 58.22a96.122 96.122 0 00-42.58 35.703c-10.332-15.842-25.154-28.308-42.58-35.73A42.24 42.24 0 00138 353.751v-59c0-15.163-12.336-27.5-27.5-27.5H38.42L53 315.85c1.144 32.277-3 43.083 5.086 58.042C23.567 388.676 0 422.554 0 461.75v49h15v-49c0-34.253 21.117-64.13 52.973-75.658a42.37 42.37 0 0055.065-.009c19.116 6.95 34.926 20.958 44.192 39.14-11.056 26.65-5.868 44.75-7.23 85.528h15v-49c0-34.253 21.117-64.13 52.973-75.658a42.37 42.37 0 0055.055 0C314.883 397.62 336 427.497 336 461.75v49h15c-1.36-40.688 3.833-58.863-7.23-85.528 9.266-18.18 25.076-32.188 44.192-39.14 15.9 13.553 39.167 13.56 55.065.01C474.883 397.62 496 427.497 496 461.75v49h15v-49c0-39.087-23.468-73.032-58.086-87.858zM123 353.75c0 15.163-12.336 27.5-27.5 27.5S68 368.913 68 353.75v-31.5h55zm0-46.5H66.08l-7.5-25h51.92c6.893 0 12.5 5.607 12.5 12.5zm160 46.5c0 15.163-12.336 27.5-27.5 27.5s-27.5-12.337-27.5-27.5v-31.5h55zm1.644-46.5h-58.288l-6.25-25h70.788zM443 353.75c0 15.163-12.336 27.5-27.5 27.5s-27.5-12.337-27.5-27.5v-31.5h55zm1.92-46.5H388v-12.5c0-6.893 5.607-12.5 12.5-12.5h51.92zm8.08 145.5h15v58h-15zm-88 0h15v58h-15zm-322 0h15v58H43zm88 0h15v58h-15zm72 0h15v58h-15zm90 0h15v58h-15zM95.176 247.456l71.926-32.206H213l42.5 31.875L298 215.25h45.897l71.926 32.206L433 215.25h45V.25H33v215h45zM48 15.25h415v185h-39l-14.824 27.794-62.074-27.794H293l-37.5 28.125L218 200.25h-54.103l-62.074 27.794L87 200.25H48zm175 129.88v45.12h65v-45.12c53.868-32.737 30.348-115.88-32.5-115.88-62.81 0-86.413 83.116-32.5 115.88zm50 30.12h-35v-26h35zm-17.5-131c49.464 0 66.06 67.064 21.585 89.807l-.378.193H263v-29h17.5v-15h-50v15H248v29h-13.707l-.378-.193c-44.394-22.702-28-89.807 21.585-89.807zm-84 55h-36v-15h36zm2.697 19.196l10.606 10.607-24 24-10.606-10.607zm0-53.392l-24-24 10.606-10.607 24 24zM339.5 84.25h36v15h-36zm10.697 68.804l-24-24 10.606-10.607 24 24zm-13.394-88l-10.606-10.607 24-24 10.606 10.607z" fill="url(#C)"/></svg>