<svg xmlns="http://www.w3.org/2000/svg" height="512" viewBox="0 0 512.5 512.5" width="512"><linearGradient id="A" gradientUnits="userSpaceOnUse" x1="258" x2="258" y1="146.5" y2="366.5"><stop offset="0" stop-color="#96d1f3"/><stop offset="1" stop-color="#ccfff4"/></linearGradient><linearGradient id="B" gradientUnits="userSpaceOnUse" x1="256" x2="256" y1="7.5" y2="505"><stop offset="0" stop-color="#a8abff"/><stop offset="1" stop-color="#fac8ff"/></linearGradient><linearGradient id="C" gradientUnits="userSpaceOnUse" x1="256.25" x2="256.25" y1="0" y2="512.5"><stop offset="0" stop-color="#174fa3"/><stop offset="1" stop-color="#b044af"/></linearGradient><circle cx="258" cy="256.5" fill="url(#A)" r="110"/><path d="M127.5 103c0 18.502-14.998 33.5-33.5 33.5S60.5 121.502 60.5 103 75.498 69.5 94 69.5s33.5 14.998 33.5 33.5zM256 7.5c-18.502 0-33.5 14.998-33.5 33.5s14.998 33.5 33.5 33.5 33.5-14.998 33.5-33.5S274.502 7.5 256 7.5zm0 430.5c-18.502 0-33.5 14.998-33.5 33.5S237.498 505 256 505s33.5-14.998 33.5-33.5S274.502 438 256 438zM422 69.5c-18.502 0-33.5 14.998-33.5 33.5s14.998 33.5 33.5 33.5 33.5-14.998 33.5-33.5-14.998-33.5-33.5-33.5zm-328 306c-18.502 0-33.5 14.998-33.5 33.5s14.998 33.5 33.5 33.5 33.5-14.998 33.5-33.5-14.998-33.5-33.5-33.5zm328 0c-18.502 0-33.5 14.998-33.5 33.5s14.998 33.5 33.5 33.5 33.5-14.998 33.5-33.5-14.998-33.5-33.5-33.5zm82.75-119.25c0-18.502-14.998-33.5-33.5-33.5s-33.5 14.998-33.5 33.5 14.998 33.5 33.5 33.5 33.5-14.998 33.5-33.5zm-430.5 0c0-18.502-14.998-33.5-33.5-33.5s-33.5 14.998-33.5 33.5 14.998 33.5 33.5 33.5 33.5-14.998 33.5-33.5z" fill="url(#B)"/><path d="M258.75 139c-64.8 0-117.5 52.7-117.5 117.5S193.96 374 258.75 374s117.5-52.7 117.5-117.5S323.54 139 258.75 139zm-41.512 23.792c-2.812 3.7-5.472 7.805-7.954 12.305-2.15 3.9-4.122 8.034-5.92 12.352a102.86 102.86 0 01-11.469-8.581 102.75 102.75 0 0125.344-16.076zm-35.984 26.69c5.32 4.682 10.99 8.84 16.96 12.442-4.332 14.456-6.885 30.44-7.48 47.075h-34.208c1.647-22.663 10.69-43.307 24.728-59.517zM156.526 264h34.208c.64 17.95 3.57 35.137 8.545 50.47a118.24 118.24 0 00-16 11.3c-15.187-16.532-25.028-38.047-26.752-61.78zm37.768 72.134a102.784 102.784 0 0110.43-7.428 122.974 122.974 0 004.56 9.198c2.482 4.5 5.142 8.604 7.954 12.305a102.735 102.735 0 01-22.944-14.075zm56.956 21.79c-13.122-3.754-24.864-17.157-33.156-36.22a102.042 102.042 0 0133.156-8.1zm0-59.35c-13.32.84-26.254 3.908-38.334 9.025-4-13.08-6.56-27.914-7.182-43.602h45.517v34.577zm0-49.576h-45.517c.566-14.276 2.73-27.844 6.136-40.028 12.36 5.38 25.64 8.593 39.38 9.453V249zm0-45.603c-12.08-.868-23.744-3.83-34.57-8.706 8.34-20.86 20.683-35.643 34.57-39.616zM360.974 249h-34.208c-.594-16.634-3.147-32.62-7.48-47.075 5.968-3.6 11.64-7.76 16.96-12.442 14.037 16.2 23.08 36.854 24.728 59.517zm-35.37-70.133a102.74 102.74 0 01-11.469 8.581c-1.8-4.318-3.77-8.452-5.92-12.352-2.482-4.5-5.142-8.604-7.954-12.305a102.77 102.77 0 0125.344 16.076zm-59.355-23.792c13.888 3.973 26.23 18.756 34.57 39.616-10.827 4.877-22.5 7.84-34.57 8.706zm0 63.35c13.74-.86 27.02-4.074 39.38-9.453 3.406 12.184 5.57 25.752 6.136 40.028H266.25zm0 45.576h45.517c-.62 15.688-3.172 30.522-7.182 43.602-12.08-5.118-25.013-8.185-38.334-9.025V264zm0 93.925v-44.32c11.53.834 22.714 3.59 33.156 8.1-8.292 19.064-20.034 32.466-33.156 36.22zm34.012-7.717c2.812-3.7 5.472-7.805 7.954-12.305 1.62-2.94 3.136-6.016 4.56-9.198a102.56 102.56 0 0110.43 7.428 102.66 102.66 0 01-22.944 14.075zm33.96-24.43a116.612 116.612 0 00-16-11.3c4.974-15.332 7.904-32.52 8.545-50.47h34.208c-1.724 23.732-11.565 45.247-26.752 61.78zM94.25 144a40.765 40.765 0 0023.35-7.326l32.524 31.014 10.352-10.855-32.315-30.815c4.47-6.567 7.1-14.49 7.1-23.017 0-22.607-18.393-41-41-41s-41 18.393-41 41 18.392 41 41 41zm0-67c14.336 0 26 11.663 26 26s-11.664 26-26 26-26-11.663-26-26 11.664-26 26-26zm154.5 4.3v35.23h15V81.3c19.036-3.535 33.5-20.255 33.5-40.3 0-22.607-18.393-41-41-41s-41 18.393-41 41c0 20.045 14.464 36.765 33.5 40.3zm7.5-66.3c14.336 0 26 11.663 26 26s-11.664 26-26 26-26-11.663-26-26 11.664-26 26-26zm7.5 416.2v-34.73h-15v34.73c-19.036 3.535-33.5 20.255-33.5 40.3 0 22.607 18.393 41 41 41s41-18.393 41-41c0-20.045-14.464-36.765-33.5-40.3zm-7.5 66.3c-14.336 0-26-11.663-26-26s11.664-26 26-26 26 11.663 26 26-11.664 26-26 26zm166-129.5c-10.98 0-20.956 4.346-28.323 11.398l-30.93-29.496-10.352 10.855L385.09 391.7a40.725 40.725 0 00-3.84 17.3c0 22.607 18.393 41 41 41s41-18.393 41-41-18.393-41-41-41zm0 67c-14.336 0-26-11.663-26-26s11.664-26 26-26 26 11.663 26 26-11.664 26-26 26zm49.25-219.75c-19.515 0-35.878 13.71-39.993 32H398.74v15h32.203c2.913 19.773 19.988 35 40.557 35 22.607 0 41-18.393 41-41s-18.393-41-41-41zm0 67c-14.336 0-26-11.663-26-26s11.664-26 26-26 26 11.663 26 26-11.664 26-26 26zm-389.943-20h37.203v-15H80.993c-4.115-18.29-20.478-32-39.993-32-22.607 0-41 18.393-41 41s18.393 41 41 41c20.57 0 37.644-15.227 40.557-35zM41 282.25c-14.336 0-26-11.663-26-26s11.664-26 26-26 26 11.663 26 26-11.664 26-26 26zm111.104 65.182l-31.59 30.116c-7.12-5.955-16.28-9.548-26.265-9.548-22.607 0-41 18.393-41 41s18.393 41 41 41 41-18.393 41-41a40.744 40.744 0 00-5.15-19.865l32.355-30.846zM94.25 435c-14.336 0-26-11.663-26-26s11.664-26 26-26 26 11.663 26 26-11.664 26-26 26zm270.766-269.832l31.642-30.17c7.02 5.626 15.917 9.003 25.592 9.003 22.607 0 41-18.393 41-41s-18.393-41-41-41-41 18.393-41 41a40.73 40.73 0 005.592 20.631l-32.177 30.68zM422.25 77c14.336 0 26 11.663 26 26s-11.664 26-26 26-26-11.663-26-26 11.664-26 26-26z" fill="url(#C)"/></svg>