<svg xmlns="http://www.w3.org/2000/svg" width="85" height="22" fill="#3b5998"><path d="M46.7 8.23c-1.27-.14-2.37.25-3.3 1.37V2.73l-3.37.4v15.9h3.37v-.94c.45.32.9.7 1.4.9 1.96.7 4.55.13 5.46-2.5.58-1.68.57-3.4.13-5.12-.5-1.9-1.75-2.93-3.7-3.14zm.5 6.88c-.15 1.05-.98 1.6-1.97 1.52a2.27 2.27 0 01-.67-.15c-.8-.46-1.04-1.22-1.1-1.7-.05-.75-.1-2.3.25-3.04.3-.56.85-.87 1.56-.9 1-.03 1.78.47 1.93 1.5.13.92.14 1.87.01 2.78zm11.45-6.7c-1.17-.3-2.35-.3-3.52 0-1.75.47-2.92 1.57-3.3 3.33-.2.96-.25 1.98-.2 2.97.12 2.25 1.52 3.86 3.68 4.36l.1.02h.02c.08.02.17.03.25.04l.08.01a3.29 3.29 0 00.36.04c.42.04.96.08 1.4.02h.08c2.23-.12 3.93-1.52 4.42-3.68a8.07 8.07 0 00.01-3.56c-.4-1.85-1.53-3.05-3.4-3.55zm.15 6.52l-.04.2c-.22 1-.95 1.53-1.9 1.5-1.04-.05-1.74-.65-1.84-1.7-.07-.76-.08-1.53-.02-2.28.1-1.2.84-1.85 1.96-1.82.92.02 1.58.54 1.8 1.42.2.88.06 2.47.04 2.67zM8.07 8.37h-2.4v-1.6c.18-1.5 2.67-1.22 2.67-1.22v-2.6c-.1-.02-4.97-1.18-5.94 2.53v.03c-.15.46-.14 2.6-.14 2.86H.17v2.84h2.2v7.74H5.6V11.2h2.47l.28-2.84h-.28zm7.7 1.36l-.1-.12-.1-.1c-.76-.77-1.05-.96-1.64-1.14-2.3-.67-4.5.53-5.22 2.83-.43 1.4-.44 2.87-.2 4.3.55 3.1 2.85 4.14 5.3 3.63.75-.16 1.3-.63 1.83-1.28 0 0 .05-.06.1-.17v1.36h3.14V8.38h-3.14l.02 1.35zm-.28 5.36c-.1 1-.9 1.58-1.85 1.54-.97-.04-1.6-.55-1.8-1.48-.25-1.32.04-2.88.07-3 .25-.88.9-1.32 1.84-1.3.93.02 1.64.57 1.75 1.53a12.37 12.37 0 010 2.72zm13.02 3.18l-.47-1.57-.15-.57s-3.94 1.9-4.56-1.7a7.65 7.65 0 01.04-1.79c.15-1.1.83-1.7 1.9-1.8.36-.03.74-.02 1.1.04.5.08.97.23 1.5.36l.55-1.7.07-.23.1-.34c-.02-.05-.08-.1-.15-.14-.1-.08-.25-.14-.5-.23l-.3-.1-.14-.04c-1.04-.3-2.1-.32-3.18-.2-2.28.24-3.82 1.58-4.25 3.8-.22 1.17-.2 2.35.04 3.52.4 1.75 1.45 2.88 3.18 3.4 1.13.33 2.28.35 3.43.17.48-.08 1.18-.33 1.67-.5l.2-.07-.08-.3zm10.38-4.17l-.1-2.2c-.3-2-1.5-3.25-3.46-3.57-.75-.13-1.54-.1-2.3-.04-2.08.2-3.65 1.5-3.98 3.44-.2 1.18-.22 2.44-.06 3.62.24 1.78 1.1 2.92 2.6 3.47h.02c.7.2 4.05 1.08 7-.4l-.12-.44-.46-1.73-.02-.06-.17.06h-.01a2.4 2.4 0 00-.38.12l-.07.02a12.87 12.87 0 01-1.77.37 8.98 8.98 0 01-1.72.01c-.94-.16-1.66-.66-1.63-1.85h6.2l.4-.01v-.12l.01-.7zm-3.03-1.45H32.2c.02-.72.1-1.4.75-1.8.68-.43 1.44-.45 2.14-.06.72.4.77 1.1.75 1.87zM84.83 8.5h-3.57l-3.1 4.86V2.74l-3.37.4v15.9h3.37v-4.86l3.1 4.86h3.57l-3.37-5.28zm-14.68-.08c-1.17-.3-2.35-.3-3.52 0-1.75.47-2.92 1.57-3.3 3.33-.2.96-.25 1.98-.2 2.97.12 2.25 1.52 3.86 3.68 4.36l.1.02h.02c.08.02.17.03.25.04l.08.01a3.29 3.29 0 00.36.04c.42.04.96.08 1.4.02h.08c2.23-.12 3.93-1.53 4.42-3.68a8.07 8.07 0 00.01-3.56c-.4-1.85-1.54-3.05-3.4-3.55zm.14 6.52l-.04.2c-.22 1-.95 1.53-1.9 1.5-1.04-.05-1.75-.65-1.84-1.7-.07-.76-.08-1.53-.02-2.28.1-1.2.85-1.85 1.97-1.82a1.81 1.81 0 011.81 1.42c.2.88.05 2.46.03 2.67z"/></svg>