<svg xmlns="http://www.w3.org/2000/svg" width="85" height="22"><path d="M17.14 18.55H13.1l-1.24-3H5.1l-1.13 3H0l6.08-15.1h4.36l6.7 15.1zM8.32 7.07l-2.2 5.86h4.65L8.32 7.07zm23.53-3.6h3.27v15.1h-3.76V9.12l-4.07 4.73h-.57l-4.07-4.73v9.42H18.9V3.46h3.27L27 9.06l4.85-5.6zm12.8 0c5.5 0 8.34 3.43 8.34 7.57 0 4.34-2.74 7.52-8.76 7.52H38V3.46h6.66zm-2.9 12.32h2.46c3.78 0 4.9-2.57 4.9-4.78 0-2.6-1.4-4.78-4.96-4.78h-2.4v9.56zm26.5-8.74h-7.78L55.74 2.3H73v17.27l-4.74-4.74zm-7.8 7.78V8l-4.88 4.88v6.84h6.83l4.9-4.9z"/></svg>