<svg xmlns="http://www.w3.org/2000/svg" width="85" height="22" fill="#eb2027"><path d="M5.63 1.26l2.22-.02 5.66 15.1c-.7.01-1.4-.01-2.1.01L9.88 11.9c-2.08-.01-4.17 0-6.25 0L2.1 16.34H0v-.01L5.63 1.26zM4.3 10.1h4.94L6.77 3.5 4.3 10.1zm11.28-8.86h1.94v15.1H15.6V1.24zm16.3 0h1.95l-.08 6.24c.72-1.04 1.9-1.75 3.17-1.8 1.12-.05 2.32.28 3.08 1.14.77.86 1.03 2.06 1.04 3.2v6.33H39.1V10.3c-.01-.8-.17-1.72-.82-2.28-.67-.55-1.63-.64-2.44-.43-1.25.4-1.97 1.72-2 2.97l-.01 5.8H31.9l-.02-15.1zm22.2.34h1.95l-.08 5.9c.56-.74 1.32-1.35 2.23-1.6 1.56-.5 3.35-.06 4.53 1.07 2.22 2.03 2.36 5.85.36 8.08-1 1.16-2.57 1.82-4.1 1.6-1.2-.12-2.3-.8-3.02-1.76l-.01 1.46h-1.85l-.01-14.75zm4.52 5.94c-1.03.2-1.9 1-2.27 1.96a4.8 4.8 0 00-.03 3.3c.34.96 1.15 1.75 2.14 2a3.1 3.1 0 003.07-.9c.78-.86 1.02-2.08.9-3.2-.08-.97-.5-1.95-1.3-2.56-.7-.56-1.66-.76-2.53-.6zm20-4.68h1.94V6H83v1.77h-2.45v5.28c0 .47.08 1 .5 1.32.56.42 1.3.3 1.97.22v1.75c-1.07.13-2.26.14-3.2-.5-.82-.55-1.2-1.57-1.2-2.53l-.01-5.54h-1.8V6h1.82V2.84zm-54.17 2.9c1.62-.32 3.33.36 4.4 1.6 2.02 2.3 1.8 6.23-.57 8.2-1.46 1.3-3.77 1.5-5.4.42-.47-.28-.8-.7-1.18-1.1.15 1.96.06 3.93.1 5.9H19.8V6h1.86l.01 1.47c.66-.9 1.65-1.55 2.76-1.74zm-.1 1.78c-.97.2-1.8.88-2.2 1.78-.45 1-.5 2.15-.2 3.2.28 1.03 1.08 1.94 2.12 2.25 1.1.34 2.35.03 3.13-.8.82-.86 1.08-2.12.96-3.28-.1-1.03-.57-2.07-1.44-2.67-.7-.47-1.56-.63-2.37-.47zM44.75 6.3c1.12-.65 2.48-.75 3.74-.5 1.02.2 1.98.76 2.54 1.64.55.83.75 1.85.76 2.83v6.07h-1.85l-.01-1.46c-.7.94-1.73 1.67-2.9 1.78-.97.08-2-.1-2.84-.62-1.72-1.06-2-3.87-.46-5.2.72-.64 1.68-.95 2.62-1.07 1.2-.15 2.5-.04 3.6.52.02-.7-.07-1.45-.55-2-.76-.9-2.1-1.04-3.17-.66-.65.22-1.1.78-1.45 1.35l-1.8-.62c.4-.83.97-1.6 1.78-2.05zm1.8 5.12c-.43.08-.86.24-1.2.54-.7.57-.83 1.76-.18 2.42.56.52 1.4.62 2.12.52 1.37-.27 2.6-1.56 2.52-3-.97-.58-2.18-.63-3.27-.5zm23.22-5.6c1.8-.45 3.92.04 5.12 1.52.96 1.15 1.28 2.7 1.2 4.17H68c.05.94.38 1.9 1.1 2.56 1.1 1.03 2.96 1.05 4.13.1.42-.33.73-.78.96-1.26l1.74.73c-.42.94-1.1 1.77-2 2.3-1.18.7-2.64.88-3.97.6a4.901 4.901 0 01-3.06-2.13c-1.12-1.74-1.2-4.07-.3-5.92.6-1.28 1.78-2.3 3.16-2.66zm-.3 2.08c-.7.45-1.14 1.22-1.35 2h5.93c-.1-.92-.7-1.8-1.55-2.17-.95-.4-2.14-.42-3.03.16z"/></svg>