<svg xmlns="http://www.w3.org/2000/svg" height="512" viewBox="0 0 511 511" width="512"><linearGradient id="A" gradientUnits="userSpaceOnUse" x1="131.5" x2="131.5" y1="75.5" y2="375.5"><stop offset="0" stop-color="#a8abff"/><stop offset="1" stop-color="#fac8ff"/></linearGradient><linearGradient id="B" gradientUnits="userSpaceOnUse" x1="349.5" x2="349.5" y1="135.5" y2="435.5"><stop offset="0" stop-color="#96d1f3"/><stop offset="1" stop-color="#ccfff4"/></linearGradient><linearGradient id="C" gradientUnits="userSpaceOnUse" x1="255.5" x2="255.5" y1="64.5" y2="446.5"><stop offset="0" stop-color="#174fa3"/><stop offset="1" stop-color="#b044af"/></linearGradient><path d="M245.5 301.5c-27.614 0-50-22.386-50-50s22.386-50 50-50c3.425 0 6.77.346 10 1.002V135.5h-75.002a50.21 50.21 0 001.002-10c0-27.614-22.386-50-50-50s-50 22.386-50 50c0 3.425.346 6.77 1.002 10H7.5v240h75.002a50.21 50.21 0 01-1.002-10c0-27.614 22.386-50 50-50s50 22.386 50 50c0 3.425-.346 6.77-1.002 10H255.5v-75.002a50.21 50.21 0 01-10 1.002z" fill="url(#A)"/><path d="M503.5 135.5h-75.002a50.21 50.21 0 011.002 10c0 27.614-22.386 50-50 50s-50-22.386-50-50c0-3.425.346-6.77 1.002-10H255.5v67.002a50.21 50.21 0 00-10-1.002c-27.614 0-50 22.386-50 50s22.386 50 50 50c3.425 0 6.77-.346 10-1.002V375.5h75.002a50.21 50.21 0 00-1.002 10c0 27.614 22.386 50 50 50s50-22.386 50-50c0-3.425-.346-6.77-1.002-10H503.5z" fill="url(#B)"/><path d="M511 128h-91.678l1.826 8.992C426.528 163.48 406.185 188 379.5 188c-26.705 0-47.023-24.543-41.648-51.008l1.826-8.992h-150.73c1.417-32.657-24.758-60-57.446-60-32.676 0-58.863 27.328-57.446 60H0v255h91.678C90.36 375.792 89 372.01 89 365.5c0-23.435 19.065-42.5 42.5-42.5s42.5 19.065 42.5 42.5c0 6.495-1.342 10.2-2.678 17.5h150.73c-1.417 32.657 24.758 60 57.446 60 32.676 0 58.863-27.328 57.446-60H511zM188.946 368c1.417-32.657-24.758-60-57.446-60-32.676 0-58.863 27.328-57.446 60H15V143h76.678l-1.826-8.992C84.472 107.52 104.815 83 131.5 83c26.705 0 47.023 24.543 41.648 51.008L171.322 143H248v51.054c-32.657-1.417-60 24.758-60 57.446 0 31.706 25.794 57.5 57.5 57.5a57.92 57.92 0 002.5-.054V368zM496 368h-76.678c1.32 7.208 2.678 10.99 2.678 17.5 0 23.435-19.065 42.5-42.5 42.5S337 408.935 337 385.5c0-6.495 1.342-10.2 2.678-17.5H263v-76.678c-7.208 1.32-10.99 2.678-17.5 2.678-23.435 0-42.5-19.065-42.5-42.5 0-26.705 24.543-47.023 51.008-41.648l8.992 1.826V143h59.054c-1.417 32.657 24.758 60 57.446 60 32.676 0 58.863-27.328 57.446-60H496zm-84-62.5c0 12.958-10.542 23.5-23.5 23.5H387v14.5h-15V329h-17.5v-15h34c11.25 0 11.235-17 0-17h-18c-12.958 0-23.5-10.542-23.5-23.5s10.542-23.5 23.5-23.5h1.5v-14.5h15V250h17.5v15h-34a8.51 8.51 0 00-8.5 8.5 8.51 8.51 0 008.5 8.5h18c12.958 0 23.5 10.542 23.5 23.5zm-248-68c0 12.958-10.542 23.5-23.5 23.5H139v14.5h-15V261h-17.5v-15h34c11.25 0 11.235-17 0-17h-18c-12.958 0-23.5-10.542-23.5-23.5s10.542-23.5 23.5-23.5h1.5v-14.5h15V182h17.5v15h-34c-11.25 0-11.235 17 0 17h18c12.958 0 23.5 10.542 23.5 23.5zm99-143h-15v-30h15zm-38.804 15.304l-20-20 10.607-10.607 20 20zm62.608 0l-10.607-10.607 20-20 10.607 10.607zM248 416.5h15v30h-15zm-23.804-15.304l10.607 10.607-20 20-10.607-10.607zm62.608 0l20 20-10.607 10.607-20-20z" fill="url(#C)"/></svg>