<svg xmlns="http://www.w3.org/2000/svg" width="500.99" height="371.23"><linearGradient id="A" gradientUnits="userSpaceOnUse" x1="0" y1="157.676" x2="470.229" y2="157.676"><stop offset="0" stop-color="#fff" stop-opacity="0"/><stop offset=".25" stop-color="#9995ba" stop-opacity=".6"/><stop offset="1" stop-color="#686299" stop-opacity=".8"/></linearGradient><path d="M108.96 39.3C61.03 82.67-70.42 205.5 48.36 246.76c43.5 15.1 92.63 4.37 136.65 21.88 49.16 19.55 88.45 50.22 143.77 46.4 46.4-3.2 63.6-41.06 68.5-82.45 5.1-43 20.14-52.47 47.55-84 22.6-26 38.3-60.94 10.63-88.2C425.9 31.2 376.64 45.02 338.84 42.9c-25.9-1.44-53.24-5.26-75.16-17.96-12.2-7.07-25-16.85-38.9-21.42-28.64-9.43-77-.75-115.8 35.78z" opacity=".1" fill="url(#A)"/><path d="M165.2 63.88c-7.3 5-13.42 11.55-19.4 18.1-37.82 41.45-176.32 182.4-66.92 220.42 43.5 15.1 92.63 4.37 136.65 21.88 49.16 19.55 88.45 50.22 143.77 46.4 46.4-3.2 63.6-41.06 68.5-82.45 5.1-43 20.14-52.47 47.55-84 22.6-26 38.3-60.94 10.63-88.2-29.56-29.15-78.83-15.34-116.63-17.45-25.9-1.44-53.24-5.26-75.17-17.97-23.76-13.77-49.24-24.8-76.86-27.74-17.76-1.88-36.56.7-51.43 10.57-.25.16-.48.32-.7.48z" opacity=".3" fill="none" stroke="#fd6a4f" stroke-width=".5" stroke-miterlimit="10"/></svg>