<svg xmlns="http://www.w3.org/2000/svg" xmlns:xlink="http://www.w3.org/1999/xlink" height="512" width="512"><linearGradient id="A" gradientUnits="userSpaceOnUse"><stop offset="0" stop-color="#a8abff"/><stop offset="1" stop-color="#fac8ff"/></linearGradient><linearGradient id="B" x1="284" x2="284" xlink:href="#A" y1="7.75" y2="305.75"/><linearGradient id="C" x1="371.75" x2="371.75" xlink:href="#A" y1="69.75" y2="305.75"/><linearGradient id="D" x1="168.25" x2="168.25" xlink:href="#A" y1="96.75" y2="305.75"/><linearGradient id="E" x1="178.5" x2="178.5" xlink:href="#A" y1="45.75" y2="96.75"/><linearGradient id="F" gradientUnits="userSpaceOnUse" x1="256" x2="256" y1="263.25" y2="511.75"><stop offset="0" stop-color="#96d1f3"/><stop offset="1" stop-color="#ccfff4"/></linearGradient><linearGradient id="G" gradientUnits="userSpaceOnUse" x1="256" x2="256" y1=".25" y2="511.75"><stop offset="0" stop-color="#174fa3"/><stop offset="1" stop-color="#b044af"/></linearGradient><path d="M223 7.75v298h122v-298zm92 230h-62v-30h62zm0-59h-62v-30h62zm0-59h-62v-30h62z" fill="url(#B)"/><path d="M345 69.75h53.5v236H345z" fill="url(#C)"/><path d="M113.5 96.75v209H223v-209zm79.5 121h-49.5v-30H193zm0-61h-49.5v-30H193z" fill="url(#D)"/><path d="M223 96.75h-89v-35l89-16z" fill="url(#E)"/><path d="M256 263.25c-137.243 0-248.5 111.257-248.5 248.5h497c0-137.243-111.257-248.5-248.5-248.5z" fill="url(#F)"/><path d="M169 339.75l14-27 50 4 5 36-24 11 17 36-24 4zm322.18 91.55L454 444.75l-9 36-54 2-32-51-45-5-43-55 28-44 114-8.64c35.6 29.05 63 67.78 78.2 112.18zM172 435.75l-14 36-39-12-25 26v.12l-85.12-.45c6.15-58.42 32.54-110.8 72.03-150l40.1 18.34v28l22 8z" fill="#fff"/><path d="M406 304.25v-242h-53.5v-62h-137v39.228l-89 16V89.25H106v215C40.742 351.635 0 427.124 0 511.75h15a243.11 243.11 0 01.74-18.914l81.437.43 24.03-24.99 41.255 12.694 17.897-46.023-32.384-51.368-19.476-7.082v-27.563L94.236 333.26c82.514-74.85 205.878-83.645 298.126-20.107l-97.674 7.403-32.86 51.64 48.208 61.66 44.537 4.95 32.377 51.6 63.96-2.37 9.398-37.593 26.088-9.445C493.283 463.38 497 487.14 497 511.75h15c0-84.6-40.723-160.1-106-207.5zm-292.5 54.316v28.437l24.524 8.918 25.616 40.632-10.103 25.977-36.745-11.306-25.97 27.01-73.427-.388c7.274-51.43 30.834-97.688 65.3-133.374zm102-99.632c-33.69 5.324-65.708 17.274-94.5 35.212V104.25h94.5zm0-169.684h-74V68.022l74-13.303zm122 179.693c-33.012-11.046-69.498-15.63-107-11.947V15.25h107zM391 92.25h-22v15h22v13.2h-22v15h22v13.2h-22v15h22v13.2h-22v15h22v13.2h-22v15h22v13.2h-22v15h22v45.896a253.19 253.19 0 00-38.5-19.646V77.25H391zm56.692 346.807l-8.602 34.407-44.04 1.63-31.623-50.4-45.463-5.05-37.792-48.34 23.14-36.36 107.055-8.115c31.603 26.425 56.35 60.78 71.16 99.978zM322.5 82.25h-77v45h77zm-15 30h-47v-15h47zm15 29h-77v45h77zm-15 30h-47v-15h47zm15 29h-77v45h77zm-15 30h-47v-15h47zm-107-111H136v45h64.5zm-15 30H151v-15h34.5zm15 31H136v45h64.5zm-15 30H151v-15h34.5zm75-147.5h-15v-33h15zm31 0h-15v-33h15zm31 0h-15v-33h15zm-82.9 247.004l-60.967-4.877-18.2 35.12 42.747 71.995 38.847-6.475-17.996-38.1 22.175-10.164zm-35.622 50.34l16.004 33.9-9.153 1.525-33.253-56.005 9.8-18.88 39.033 3.123 3.404 24.5z" fill="url(#G)"/></svg>