<svg xmlns="http://www.w3.org/2000/svg" width="108.79" height="93.32"><path d="M14.3.1C8.2.46 2.24 2.04.38 7.62-1.3 12.66 2.95 16.18 7.33 19c2.5 1.6 6.3 2.76 8.3 4.76 3.14 3.1 1.65 7.2-.2 10.6C12.1 40.56 7.22 46 8.9 52.95c.64 2.67 3.1 5.25 5.25 7.25 2.94 2.74 6.88 2.27 9.8 4.35 6.58 4.67.98 10.7-2.48 15.3-3.88 5.18-3.72 10.4 1.8 14.15 2.46 1.67 6.73 2.2 8.75 4.1 2.6 2.43.88 5.43-.4 8.15-1.33 2.83-3.2 6.33-1 9.1 2.1 2.68 7.57 3.86 11.4 3.93 13.63.25 30.05-4.17 42.03-10.58 15.5-8.28 22.8-24.24 24.4-41.2 1.4-15.04-1.44-31.13-11.16-42.7C81.05 5.53 49.04.4 25.25.17c-2.98-.03-7-.3-10.96-.08z" opacity=".2" fill="#6b629b"/></svg>